<svg width="326" height="192" viewBox="0 0 326 192" fill="none"
  xmlns="http://www.w3.org/2000/svg">
  <path d="M130.149 181.29C135.386 181.29 146.081 186.798 147.832 187.913C147.911 187.962 147.973 188.03 148.014 188.109C150.295 192.558 153.786 191.324 157.831 189.895C159.168 189.423 160.55 188.934 161.885 188.679C161.911 188.674 161.935 188.671 161.96 188.669C162.247 188.651 162.527 188.641 162.799 188.632C164.477 188.569 165.401 188.536 165.902 187.016C165.967 186.819 166.162 186.679 166.389 186.664C168.454 186.541 170.058 186.712 171.471 186.863C174.343 187.169 176.419 187.39 180.426 184.931C180.531 184.866 180.658 184.837 180.786 184.848C181.733 184.932 182.425 185.587 183.034 186.163C183.818 186.904 184.296 187.316 184.991 187.077C186.488 186.477 188.171 186.092 189.797 185.718C193.906 184.778 197.785 183.888 198.706 179.759C198.744 179.591 198.875 179.453 199.053 179.394C199.281 179.318 199.324 179.254 199.324 179.254C199.357 179.098 198.922 178.575 198.688 178.293C198.167 177.668 197.578 176.961 197.765 176.232C197.854 175.885 198.107 175.592 198.515 175.36C198.791 174.397 198.755 173.531 198.407 173.023C198.196 172.714 197.869 172.526 197.409 172.449C197.167 172.41 196.985 172.229 196.963 172.008C196.938 171.745 196.923 171.46 196.907 171.161C196.834 169.76 196.754 168.176 195.506 167.659C193.746 167.59 192.612 165.909 192.527 164.28C192.447 162.749 193.256 161.657 194.606 161.435C195.674 160.249 197.156 160.15 198.471 160.061C199.648 159.982 200.665 159.915 201.289 159.132C201.41 158.979 201.616 158.903 201.822 158.933C203.204 159.143 203.846 159.826 204.412 160.43C205.059 161.119 205.585 161.676 207.331 161.431C206.503 159.574 206.407 158.176 207.036 157.166C208.015 155.592 210.52 155.317 212.941 155.052C216.748 154.635 219.058 154.191 219.012 151.569C218.734 148.999 219.283 147.177 220.644 146.149C222.201 144.974 224.711 144.851 228.314 145.774C228.967 145.79 229.418 145.4 229.897 144.994C230.362 144.596 230.884 144.145 231.614 144.188C232.168 144.221 232.712 144.535 233.314 145.175C233.583 145.234 233.847 145.063 234.398 144.599C234.742 144.31 235.097 144.01 235.53 143.856C235.628 143.821 235.735 143.813 235.841 143.833C236.998 144.05 237.17 143.898 237.352 143.737C237.794 143.346 238.253 143.173 239.366 143.388C239.699 143.291 239.899 142.964 240.184 142.462C240.519 141.87 240.934 141.137 241.881 140.974C242.385 140.775 242.734 140.23 243.102 139.654C243.628 138.834 244.224 137.903 245.468 137.764C245.579 137.753 245.688 137.771 245.785 137.817C249.584 139.599 251.742 138.697 253.646 137.903C255.003 137.335 256.284 136.801 257.839 137.358C259.432 137.929 261.06 139.582 263.114 142.716C264.179 143.984 265.711 144.898 267.333 145.867C268.774 146.728 270.255 147.611 271.411 148.78C271.43 148.756 271.448 148.731 271.47 148.71C271.431 148.631 271.411 148.54 271.415 148.442C271.439 147.963 271.974 147.792 272.49 147.626C272.667 147.57 272.985 147.468 273.096 147.395C273.412 146.899 273.825 146.716 274.322 146.853C274.347 146.759 274.376 146.626 274.405 146.44C274.435 146.265 274.565 146.117 274.747 146.053C279.582 144.351 281.335 145.262 282.743 145.994C283.476 146.376 284.042 146.668 284.971 146.573C284.468 145.407 284.468 144.594 284.962 144.045C285.914 142.987 288.3 143.497 290.827 144.035C292.675 144.43 295.207 144.969 295.789 144.347C296.054 144.064 295.974 143.403 295.565 142.48C295.208 142.202 294.968 141.969 294.99 141.66C295.001 141.503 295.077 141.39 295.157 141.309C294.084 140.49 293.862 139.793 293.981 139.25C293.413 138.962 292.993 138.391 292.755 137.855L290.53 136.569C290.305 136.439 290.124 136.335 290.003 136.231L289.992 136.241C289.73 135.996 289.584 135.613 289.415 135.172C289.281 134.82 289.057 134.233 288.853 134.149C287.654 133.634 287.169 133.287 287.054 132.868C286.972 132.573 287.105 132.346 287.209 132.208C287.161 132.177 287.096 132.136 287.007 132.086C286.96 132.06 286.918 132.029 286.881 131.991C285.441 130.52 284.428 129.579 283.687 128.893C281.958 127.29 281.777 127.122 282.303 125.548C282.503 124.949 282.805 124.044 283.067 122.552C283.073 122.523 283.08 122.493 283.091 122.465C282.994 122.464 282.896 122.462 282.809 122.46C281.819 122.449 280.464 122.434 279.851 121.542C279.455 120.965 279.486 120.169 279.949 119.119C279.782 119.032 279.631 118.924 279.507 118.815C279.175 118.521 279.011 118.188 279.051 117.881C279.073 117.71 279.191 117.562 279.364 117.489C279.417 117.468 279.466 117.447 279.513 117.427C279.306 117.331 279.098 117.2 278.945 117.014C278.414 117.279 277.783 117.384 277.261 117.259C276.685 117.121 276.288 116.723 276.162 116.159C275.801 115.611 275.821 115.188 275.939 114.887C275.131 115.366 274.331 115.157 273.771 115.01C273.103 114.836 273.081 114.876 272.954 115.096C272.872 115.239 272.716 115.338 272.539 115.358C272.361 115.379 272.185 115.318 272.064 115.198C271.666 114.798 271.575 114.843 270.995 115.31C270.58 115.644 270.067 116.06 269.345 115.96C268.912 115.899 268.501 115.663 268.077 115.223C268.065 115.323 268.054 115.42 268.043 115.506C267.985 116.002 267.936 116.432 267.413 116.432C266.915 116.432 266.841 115.979 266.804 115.761C266.775 115.58 266.739 115.302 266.691 114.885C266.679 114.777 266.706 114.668 266.77 114.576C266.806 114.524 266.824 114.497 266.559 114.176C266.278 113.839 265.809 113.273 266.288 112.561C266.339 112.486 266.411 112.423 266.497 112.382C267.925 111.691 268.361 110.619 268.781 109.581C269.185 108.585 269.603 107.556 270.864 107.029C272.006 106.551 273.718 106.57 276.206 107.097C275.442 105.21 275.164 103.963 275.666 103.065C276.248 102.021 277.699 101.667 280.102 101.08C280.337 101.022 280.581 100.963 280.833 100.9C279.917 99.772 279.66 98.9331 280.026 98.2899C280.701 97.0974 283.147 97.2586 285.735 97.4313C286.878 97.507 288.966 97.6468 289.366 97.3737C289.535 94.4096 289.444 91.4718 289.357 88.6294C289.15 81.8573 288.955 75.4619 291.998 68.8971C292.216 68.4529 291.865 68.1651 290.941 67.642C290.335 67.2999 289.764 66.9758 289.839 66.41C289.913 65.8474 290.63 65.5184 291.683 65.1993C291.701 65.1944 291.718 65.1895 291.736 65.1862C295.534 64.4098 297.162 61.495 298.886 58.4091C300.285 55.9056 301.731 53.3165 304.443 51.966C307.513 50.4396 311.615 50.7356 317.35 52.8987C317.386 52.9119 317.421 52.93 317.454 52.9497C319.089 53.9876 319.647 54.1521 319.826 54.1061C319.929 54.0797 320.097 53.7376 320.231 53.4629C320.646 52.6141 321.335 51.2012 323.651 50.1073C326.767 47.0938 326.117 43.4224 325.431 39.5387C325.009 37.1471 324.573 34.678 324.984 32.2337C322.767 31.7616 319.991 31.4919 317.066 31.2073C311.733 30.6875 305.689 30.1003 300.82 28.105C295.13 25.7725 292.089 21.9514 291.523 16.4245C291.185 15.6892 290.761 15.2467 290.232 15.0707C289.137 14.7056 287.514 15.4754 285.945 16.2205C284.084 17.1038 282.159 18.0168 280.501 17.4312C279.522 17.0857 278.793 16.2797 278.274 14.9671C278.265 14.9457 278.258 14.9227 278.252 14.8997C277.663 12.2925 274.933 12.5458 270.504 13.2729C266.75 13.8897 262.504 14.5855 261.118 11.3434C256.884 9.60964 256.435 8.12922 256.349 6.8758C256.34 6.74914 256.329 6.57478 256.302 6.53037C256.28 6.51886 256.067 6.41358 254.952 6.49418C254.859 6.50076 254.765 6.48596 254.681 6.44977C253.752 6.06322 252.466 5.75233 251.105 5.42335C248.691 4.83941 245.974 4.18309 244.346 2.86058C236.905 5.60922 228.651 7.17189 220.664 8.6852C212.744 10.1854 204.557 11.7365 197.069 14.444C194.957 16.9887 191.026 21.3197 187.567 22.8758C183.407 29.3518 174.689 34.9182 166.298 36.443C160.483 37.4991 155.277 36.596 151.236 33.8326C136.706 31.3471 122.6 30.546 108.957 29.7713C93.7342 28.9077 79.3539 28.0902 64.3933 25.1425C64.2787 25.1195 64.1768 25.0652 64.0986 24.9862C59.5004 20.2522 50.5568 22.129 42.6663 23.7871C36.5857 25.0636 30.8434 26.2693 27.5839 24.3859C26.2997 23.644 25.4612 22.4531 25.0938 20.846C25.081 20.7934 25.0792 20.7391 25.0865 20.6865C25.9287 14.3914 27.0182 13.819 31.4945 12.4109C32.3058 12.156 33.2207 11.8681 34.2738 11.4914C34.9705 10.238 35.1105 9.26092 34.6904 8.58322C34.1647 7.73609 32.7278 7.24097 30.4196 7.10938C30.3559 7.10609 30.2922 7.09128 30.234 7.06826C28.4879 6.37575 26.4998 5.11081 24.5772 3.88865C21.1013 1.67625 17.5162 -0.603598 15.3517 0.325776C13.9875 0.911363 13.1617 2.83755 12.8943 6.0517C13.4036 7.59298 13.4382 8.58486 13.0071 9.25763C12.5578 9.96 11.7393 10.1294 10.9481 10.2939C9.87308 10.5176 8.94361 10.7101 8.56892 12.0803C8.55255 12.1428 8.52162 12.2004 8.47979 12.253C7.74677 13.1626 6.52809 13.263 5.35125 13.3617C3.88884 13.4834 2.96302 13.6249 2.5192 14.5509C-0.894907 27.7069 0.842159 30.1874 3.03759 33.3243C4.41269 35.2883 5.9715 37.5155 6.62449 42.493C6.66997 42.7348 6.98464 43.4684 7.26112 44.1182C7.91593 45.6479 8.31972 46.6365 8.29426 47.1761C8.42704 48.0676 9.07457 48.4558 10.1132 49.0101C10.8899 49.4246 11.7666 49.8935 12.2613 50.762C12.465 50.9626 12.8034 50.9692 13.3254 50.961C13.9675 50.9511 14.846 50.9396 15.3426 51.7061C15.3753 51.7555 15.3971 51.8098 15.408 51.8673C15.6354 53.0007 16.8032 53.3445 17.789 53.1833C17.8963 53.1652 18.0055 53.1767 18.1055 53.2178C21.425 54.5354 23.0821 57.21 24.6845 59.7974C25.6376 61.3354 26.538 62.7879 27.7621 63.9772C27.7858 64.0002 27.8076 64.0265 27.8276 64.0545C28.3751 64.8555 29.3446 65.0348 30.3705 65.2224C31.731 65.4707 33.4226 65.7816 33.1843 67.999C33.1843 68.0121 33.1807 68.0253 33.1789 68.0384C32.2767 72.5998 30.8288 73.6262 29.6647 74.4503C28.959 74.9503 28.4497 75.3106 28.1968 76.4998C28.1914 76.5278 28.1823 76.5541 28.1714 76.5804C27.9149 77.1924 27.2037 77.7812 26.4507 78.4046C25.845 78.9063 25.1593 79.4755 24.9956 79.8768C24.9173 80.0693 24.7154 80.1976 24.4881 80.1992C22.2835 80.2173 21.787 81.4954 21.1558 83.5795C20.6465 85.2672 20.0681 87.1769 17.7526 87.6803C16.5831 88.2412 15.1643 87.8843 13.7892 87.5405C11.9321 87.075 10.7534 86.8628 10.0622 87.8497C10.0441 87.876 10.024 87.8991 10.0004 87.9221C9.52385 88.3843 8.88177 88.2741 8.45614 88.2001C8.37611 88.1869 8.29426 88.1721 8.21423 88.1606C8.19422 88.1573 8.17603 88.154 8.15602 88.1507C7.81589 88.0718 7.71948 88.1392 7.35934 88.7084C7.17744 88.9962 6.97191 89.3236 6.6445 89.5686C6.29891 89.8614 5.87146 90.0884 5.45675 90.3072C4.7983 90.6543 4.17441 90.9849 3.95432 91.5294L4.45816 92.4061C5.6732 94.5215 6.28436 95.5824 6.52627 96.2108C6.83731 97.0234 6.58994 97.3523 6.20432 97.7307C5.76051 98.1666 4.9329 98.9775 4.72736 103.017C4.72373 103.095 4.70008 103.17 4.65825 103.238C3.01395 105.876 4.53456 107.09 6.45715 108.628C7.82316 109.719 9.36924 110.956 9.70938 112.854C9.71302 112.875 9.71483 112.897 9.71665 112.918C9.83306 116.346 7.64491 118.183 5.34761 119.748C4.44361 122.857 3.8561 123.243 2.02082 123.411C1.48424 123.46 0.840339 123.518 0 123.76C9.81306 136.208 10.1514 136.345 20.5338 140.574C22.0071 141.174 23.6787 141.855 25.6049 142.663C25.785 142.739 25.905 142.897 25.9196 143.076C26.518 150.642 29.461 154.325 31.6091 157.015C33.8901 159.87 35.5398 161.933 32.173 166.274C32.0966 166.373 31.982 166.443 31.8529 166.471C31.2581 166.6 30.8561 166.897 30.6287 167.383C30.1376 168.422 30.5542 170.138 31.2381 171.194C31.3036 171.296 31.3272 171.416 31.3036 171.533C30.8925 173.553 30.9034 177.204 31.5327 179.066C31.5582 179.144 31.5637 179.226 31.5473 179.307C31.3272 180.325 31.0362 180.674 30.8416 180.905C30.6797 181.1 30.5814 181.216 31.0798 183.524C31.0835 183.539 31.0853 183.554 31.0871 183.569C31.1781 184.36 30.8852 184.898 30.4578 185.317C31.3927 185.44 32.3985 185.625 33.4444 185.817C36.7912 186.432 40.5855 187.128 42.7827 185.792C43.7631 185.197 44.3797 184.236 44.6671 182.858C44.6944 182.731 44.7745 182.618 44.8927 182.544C46.3223 181.646 47.3573 181.159 48.4196 181.336C49.2144 181.47 49.9165 181.953 50.7169 182.935C54.0327 181.504 59.7696 179.84 64.0168 182.924C65.37 183.085 65.9357 182.631 66.6469 182.062C67.6746 181.239 68.8369 180.308 72.151 181.271L72.6293 181.157C72.9222 180.715 73.6789 179.571 73.6989 179.539C73.7844 179.407 73.9335 179.318 74.1027 179.3C77.9588 178.877 78.7864 178.154 79.2302 177.764C80.0723 177.025 80.3907 177.13 83.9084 178.621C84.234 178.364 84.4741 178.155 84.676 177.982C85.6401 177.15 85.8838 177.165 87.1407 177.65C87.2771 177.703 87.4299 177.762 87.6045 177.828C88.1993 177.387 88.1301 176.653 87.9501 175.551C87.7955 174.605 87.6354 173.628 88.403 173.018C89.2179 172.37 90.7894 172.405 93.6578 173.137C93.7579 173.163 93.8488 173.214 93.9179 173.285C94.1362 173.507 94.3181 173.686 94.46 173.819C94.6528 173.161 95.0984 172.066 96.7955 171.352C97.4939 170.885 98.3579 170.781 99.231 171.059C100.302 171.401 101.186 172.258 101.43 173.192C101.452 173.275 101.45 173.359 101.425 173.439C101.372 173.61 101.397 173.67 101.397 173.67C101.656 173.941 103.591 173.599 104.522 173.436C105.906 173.192 107.127 172.977 107.945 173.155C110.208 171.455 111.68 170.896 112.838 171.283C114.259 171.758 114.865 173.543 115.359 176.275C116.189 176.989 116.518 177.711 116.784 178.298C117.202 179.218 117.393 179.637 119.536 179.392C119.754 179.367 119.967 179.463 120.076 179.634C120.161 179.769 120.172 179.928 120.109 180.068C120.221 180.075 120.343 180.078 120.447 180.081C121.189 180.103 122.204 180.132 122.846 180.698C123.223 180.984 123.717 181.504 124.288 182.106C124.972 182.827 126.562 184.498 127.093 184.509C127.142 184.445 127.319 184.126 127.224 182.97C127.219 182.904 127.228 182.838 127.251 182.776C127.486 182.147 128.01 181.698 128.767 181.473C129.163 181.356 129.629 181.302 130.147 181.302L130.149 181.29Z" fill="#535353" fill-opacity="0.3"/>
</svg>
