<svg width="393" height="142" viewBox="0 0 393 142" fill="none"
  xmlns="http://www.w3.org/2000/svg">
  <path d="M82.66 34.306H24.567L20.707 55.729C23.795 53.1557 27.5907 51.097 32.094 49.553C36.5973 48.009 41.358 47.237 46.376 47.237C57.956 47.237 66.5767 50.518 72.238 57.08C77.8993 63.5133 80.73 71.8767 80.73 82.17C80.73 85.3867 80.4083 89.0537 79.765 93.171C77.063 108.354 70.6297 120.32 60.465 129.069C50.3003 137.69 37.5623 142 22.251 142C7.969 142 -3.09633 138.783 -10.945 132.35C-18.665 125.917 -22.525 117.232 -22.525 106.295C-22.525 103.85 -22.332 101.277 -21.946 98.575H15.11C14.8527 101.534 15.6247 104.108 17.426 106.295C19.356 108.482 22.3797 109.576 26.497 109.576C31.129 109.576 34.8603 108.032 37.691 104.944C40.5217 101.856 42.3873 97.7387 43.288 92.592C43.5453 90.5333 43.674 89.118 43.674 88.346C43.674 84.7433 42.6447 81.977 40.586 80.047C38.5273 78.117 35.568 77.152 31.708 77.152C28.234 77.152 25.2747 78.0527 22.83 79.854C20.3853 81.5267 18.7127 83.6497 17.812 86.223H-18.858L-3.804 0.916999H88.45L82.66 34.306ZM176.704 72.134L216.848 142H171.107L138.876 82.17L128.454 142H90.4328L114.558 5.93499H152.386L141.964 64.8L194.653 5.93499H238.271L176.704 72.134ZM413.435 5.93499L389.31 142H351.675L364.992 66.73L325.813 142H294.161L281.809 66.344L268.492 142H230.471L254.596 5.93499H300.337L319.058 94.136L367.887 5.93499H413.435Z" fill="#535353" fill-opacity="0.3"/>
</svg>
