<svg width="159" height="127" viewBox="0 0 159 127" fill="none"
  xmlns="http://www.w3.org/2000/svg">
  <g clip-path="url(#clip0_22_118)">
    <path fill-rule="evenodd" clip-rule="evenodd" d="M158.041 36.4652C152.582 45.9103 146.734 52.1572 140.6 55.4599C137.361 57.328 133.672 58.2397 129.938 58.0902C122.561 57.7166 116.547 53.5022 112.213 49.0038L94.2336 66.1454C105.135 77.1596 112.843 88.7268 109.124 96.1543C106.995 100.279 103.276 102.207 96.6329 102.207C91.0545 102.207 83.3466 100.832 73.2395 97.7983C67.3762 109.067 58.9035 118.796 48.5115 126.163C47.6417 126.716 46.622 127.015 45.5873 126.985C43.7578 126.955 42.0633 126.029 41.0736 124.504C39.3641 121.844 40.0689 118.317 42.6632 116.524C43.9978 115.702 76.1637 92.8516 68.9807 57.328C68.4858 55.0116 69.4306 52.6205 71.38 51.2754C74.5741 48.2417 72.0548 50.7374 76.5236 47.0909C77.5733 46.2092 78.7579 45.5815 80.0476 44.5653L98.3874 30.9805C94.7584 27.349 90.6796 24.5693 86.6457 24.8831C79.7626 25.4809 74.1842 34.0741 72.6697 37.0481C71.2301 39.7082 67.961 40.7843 65.2168 39.499C62.6075 37.87 61.6028 34.5822 62.8474 31.7876C63.3123 30.9208 71.395 14.1678 85.8809 13.1964C95.7331 12.5537 105.225 18.9202 114.103 32.4601L114.343 32.9532C116.307 36.8687 122.86 46.3586 130.358 46.3736C137.736 46.7472 144.379 37.8999 148.668 30.323C150.138 27.6927 153.482 26.7362 156.136 28.2158C156.211 28.2606 156.301 28.3054 156.376 28.3503C159.075 30.1287 159.825 33.7603 158.041 36.4503V36.4652ZM77.7382 87.0829C91.5643 90.9387 97.1427 90.6696 99.0022 90.3857C97.9375 86.53 90.4996 77.7275 80.6624 68.6262C80.6924 74.888 79.7027 81.12 77.7382 87.068V87.0829ZM132.173 24.9279C126.07 28.1709 118.482 25.8695 115.228 19.772C115.138 19.6076 115.063 19.4432 114.973 19.2788C111.719 12.8377 114.118 4.99172 120.416 1.46477C126.519 -1.77822 134.107 0.523258 137.376 6.60575C137.466 6.77014 137.541 6.93453 137.631 7.09892C140.885 13.5401 138.486 21.386 132.188 24.913L132.173 24.9279ZM64.347 49.9603C64.2121 50.8869 61.7527 51.4697 58.9335 51.0214L4.85885 42.4132C2.03964 41.9649 -0.134741 40.6348 0.000220431 39.7082C0.135182 38.7817 2.59449 38.1839 5.41369 38.6322L59.4734 47.2404C62.2926 47.6887 64.467 49.0188 64.332 49.9454L64.347 49.9603ZM12.5067 59.8089L52.4104 66.1603C55.2296 66.6087 57.404 67.9388 57.269 68.8653C57.1341 69.7919 54.6747 70.3748 51.8405 69.9264L11.9368 63.5749C9.10264 63.1266 6.94326 61.7965 7.07822 60.8699C7.21318 59.9434 9.67248 59.3456 12.5067 59.7939V59.8089ZM17.8902 77.1746L51.0008 82.4501C53.82 82.8984 55.9944 84.2285 55.8594 85.1551C55.7245 86.0816 53.2651 86.6645 50.4459 86.2161L17.3353 80.9407C14.5011 80.4923 12.3417 79.1622 12.4767 78.2357C12.6117 77.3091 15.071 76.7262 17.8902 77.1746Z" fill="url(#paint0_linear_22_118)"/>
  </g>
  <defs>
    <linearGradient id="paint0_linear_22_118" x1="0.00022043" y1="63.5002" x2="159" y2="63.5002" gradientUnits="userSpaceOnUse">
      <stop stop-color="#FF0D4D"/>
      <stop offset="1" stop-color="#FF5726"/>
    </linearGradient>
    <clipPath id="clip0_22_118">
      <rect width="159" height="127" fill="white"/>
    </clipPath>
  </defs>
</svg>
 