<svg width="224" height="224" viewBox="0 0 224 224" fill="none"
  xmlns="http://www.w3.org/2000/svg">
  <path d="M84.0001 9.33331V28H140V9.33331H158.667V28H196C198.475 28 200.849 28.9833 202.6 30.7337C204.35 32.484 205.333 34.858 205.333 37.3333V186.667C205.333 189.142 204.35 191.516 202.6 193.266C200.849 195.017 198.475 196 196 196H28.0001C25.5247 196 23.1508 195.017 21.4004 193.266C19.6501 191.516 18.6667 189.142 18.6667 186.667V37.3333C18.6667 34.858 19.6501 32.484 21.4004 30.7337C23.1508 28.9833 25.5247 28 28.0001 28H65.3334V9.33331H84.0001ZM186.667 74.6666H37.3334V177.333H186.667V74.6666ZM140.336 94.6026L153.533" fill="#535353" fill-opacity="0.3"/>
</svg>
