<svg width="166" height="166" viewBox="0 0 166 166" fill="none"
  xmlns="http://www.w3.org/2000/svg">
  <path d="M81.1001 1.02545C82.2859 0.385451 83.7141 0.385451 84.8999 1.02545L100.362 9.37102C100.96 9.69354 101.629 9.85863 102.308 9.85075L119.878 9.64676C121.225 9.63112 122.49 10.2949 123.242 11.4126L133.055 25.9879C133.434 26.5512 133.951 27.0086 134.556 27.3172L150.207 35.3015C151.408 35.9138 152.219 37.0892 152.366 38.4287L154.281 55.8946C154.355 56.5696 154.6 57.2146 154.992 57.769L165.141 72.1125C165.919 73.2124 166.091 74.6303 165.599 75.8846L159.178 92.24C158.929 92.872 158.846 93.5569 158.936 94.2299L161.256 111.647C161.434 112.982 160.928 114.318 159.909 115.2L146.623 126.698C146.109 127.142 145.717 127.71 145.484 128.347L139.444 144.847C138.981 146.113 137.912 147.06 136.6 147.367L119.492 151.374C118.831 151.529 118.22 151.849 117.717 152.305L104.702 164.109C103.704 165.014 102.317 165.356 101.012 165.018L84.0023 160.615C83.3449 160.445 82.6551 160.445 81.9977 160.615L64.9876 165.018C63.6831 165.356 62.2963 165.014 61.2982 164.109L48.2825 152.305C47.7795 151.849 47.1687 151.529 46.5076 151.374L29.3998 147.367C28.0878 147.06 27.0188 146.113 26.5556 144.847L20.5161 128.347C20.2827 127.71 19.8908 127.142 19.3774 126.698L6.09115 115.2C5.07227 114.318 4.5658 112.982 4.74373 111.647L7.064 94.2299C7.15367 93.5569 7.07052 92.872 6.82238 92.24L0.40142 75.8846C-0.0909824 74.6303 0.0811776 73.2124 0.859431 72.1125L11.0079 57.769C11.4001 57.2146 11.6447 56.5696 11.7188 55.8946L13.634 38.4287C13.7809 37.0893 14.5923 35.9138 15.7925 35.3015L31.4444 27.3172C32.0492 27.0086 32.5656 26.5512 32.9448 25.9879L42.7575 11.4126C43.51 10.2949 44.7747 9.63112 46.1221 9.64676L63.6916 9.85075C64.3705 9.85863 65.0404 9.69354 65.6379 9.37102L81.1001 1.02545Z" fill="#535353" fill-opacity="0.3"/>
</svg>
