<svg width="86" height="82" viewBox="0 0 86 82" fill="none"
  xmlns="http://www.w3.org/2000/svg">
  <path d="M39.1958 3.70821C40.3932 0.0229654 45.6068 0.0229626 46.8042 3.70821L54.0012 25.8582C54.5367 27.5063 56.0725 28.6221 57.8054 28.6221H81.0953C84.9701 28.6221 86.5813 33.5806 83.4464 35.8582L64.6045 49.5476C63.2026 50.5662 62.6159 52.3716 63.1514 54.0197L70.3484 76.1697C71.5458 79.8549 67.3279 82.9194 64.193 80.6418L45.3511 66.9524C43.9492 65.9338 42.0508 65.9338 40.6489 66.9524L21.807 80.6418C18.6721 82.9194 14.4542 79.8549 15.6516 76.1697L22.8486 54.0197C23.3841 52.3716 22.7974 50.5662 21.3955 49.5476L2.5536 35.8582C-0.581254 33.5806 1.02985 28.6221 4.90474 28.6221H28.1946C29.9275 28.6221 31.4633 27.5063 31.9988 25.8582L39.1958 3.70821Z" fill="url(#paint0_linear_78_61)"/>
  <defs>
    <linearGradient id="paint0_linear_78_61" x1="96" y1="45" x2="-10" y2="45" gradientUnits="userSpaceOnUse">
      <stop stop-color="#FFD900"/>
      <stop offset="1" stop-color="#FFBB00"/>
    </linearGradient>
  </defs>
</svg>
