<svg width="159" height="127" viewBox="0 0 159 127" fill="none"
  xmlns="http://www.w3.org/2000/svg">
  <g clip-path="url(#clip0_39_40)">
    <path fill-rule="evenodd" clip-rule="evenodd" d="M158.041 36.4652C152.582 45.9103 146.734 52.1572 140.601 55.4599C137.361 57.328 133.673 58.2397 129.939 58.0902C122.561 57.7166 116.547 53.5022 112.214 49.0038L94.2337 66.1454C105.136 77.1596 112.843 88.7268 109.124 96.1543C106.995 100.279 103.276 102.207 96.633 102.207C91.0546 102.207 83.3468 100.832 73.2396 97.7983C67.3763 109.067 58.9037 118.796 48.5116 126.163C47.6419 126.716 46.6222 127.015 45.5874 126.985C43.758 126.955 42.0634 126.029 41.0737 124.504C39.3642 121.844 40.069 118.317 42.6633 116.524C43.9979 115.702 76.1638 92.8516 68.9808 57.328C68.486 55.0116 69.4307 52.6205 71.3801 51.2754C74.5742 48.2417 72.055 50.7374 76.5237 47.0909C77.5734 46.2092 78.7581 45.5815 80.0477 44.5653L98.3875 30.9805C94.7585 27.349 90.6797 24.5693 86.6458 24.8831C79.7628 25.4809 74.1843 34.0741 72.6698 37.0481C71.2302 39.7082 67.9611 40.7843 65.2169 39.499C62.6076 37.87 61.6029 34.5822 62.8476 31.7876C63.3124 30.9208 71.3951 14.1678 85.881 13.1964C95.7333 12.5537 105.226 18.9202 114.103 32.4601L114.343 32.9532C116.307 36.8687 122.861 46.3586 130.358 46.3736C137.736 46.7472 144.38 37.8999 148.668 30.323C150.138 27.6927 153.482 26.7362 156.136 28.2158C156.211 28.2606 156.301 28.3054 156.376 28.3503C159.075 30.1287 159.825 33.7603 158.041 36.4503V36.4652ZM77.7383 87.0829C91.5644 90.9387 97.1429 90.6696 99.0023 90.3857C97.9376 86.53 90.4997 77.7275 80.6625 68.6262C80.6925 74.888 79.7028 81.12 77.7383 87.068V87.0829ZM132.173 24.9279C126.07 28.1709 118.482 25.8695 115.228 19.772C115.138 19.6076 115.063 19.4432 114.973 19.2788C111.719 12.8377 114.118 4.99172 120.416 1.46477C126.52 -1.77822 134.107 0.523258 137.376 6.60575C137.466 6.77014 137.541 6.93453 137.631 7.09892C140.885 13.5401 138.486 21.386 132.188 24.913L132.173 24.9279ZM64.3471 49.9603C64.2122 50.8869 61.7529 51.4697 58.9337 51.0214L4.85897 42.4132C2.03977 41.9649 -0.134619 40.6348 0.000342501 39.7082C0.135304 38.7817 2.59461 38.1839 5.41381 38.6322L59.4735 47.2404C62.2927 47.6887 64.4671 49.0188 64.3321 49.9454L64.3471 49.9603ZM12.5068 59.8089L52.4105 66.1603C55.2297 66.6087 57.4041 67.9388 57.2691 68.8653C57.1342 69.7919 54.6749 70.3748 51.8407 69.9264L11.937 63.5749C9.10277 63.1266 6.94338 61.7965 7.07834 60.8699C7.2133 59.9434 9.67261 59.3456 12.5068 59.7939V59.8089ZM17.8903 77.1746L51.0009 82.4501C53.8201 82.8984 55.9945 84.2285 55.8595 85.1551C55.7246 86.0816 53.2653 86.6645 50.4461 86.2161L17.3354 80.9407C14.5012 80.4923 12.3419 79.1622 12.4768 78.2357C12.6118 77.3091 15.0711 76.7262 17.8903 77.1746Z" fill="url(#paint0_linear_39_40)"/>
  </g>
  <defs>
    <linearGradient id="paint0_linear_39_40" x1="-0.0195701" y1="63.4846" x2="158.982" y2="63.4846" gradientUnits="userSpaceOnUse">
      <stop stop-color="#0973CD"/>
      <stop offset="1" stop-color="#308DDC"/>
    </linearGradient>
    <clipPath id="clip0_39_40">
      <rect width="159" height="127" fill="white"/>
    </clipPath>
  </defs>
</svg>
