<svg width="393" height="248" viewBox="0 0 393 248" fill="none"
  xmlns="http://www.w3.org/2000/svg">
  <g opacity="0.21">
    <path d="M414.645 246.76H415.065L415.138 246.346L425.093 189.769L425.197 189.182H424.601H413.269H412.85L412.777 189.595L406.167 226.924L388.061 189.465L387.925 189.182H387.611H376.28H375.861L375.787 189.595L365.751 246.172L365.647 246.76H366.243H377.656H378.075L378.148 246.347L384.757 209.1L402.782 246.477L402.919 246.76H403.233H414.645Z" fill="#535353" stroke="#535353"/>
    <path d="M331.505 189.85L331.609 189.263H331.013H319.681H319.262L319.189 189.676L313.038 224.559C313.038 224.559 313.038 224.56 313.038 224.56C312.71 226.364 312.544 228.04 312.544 229.586C312.544 235.257 314.339 239.673 317.982 242.756L317.985 242.759C321.656 245.818 326.418 247.326 332.227 247.326C336.608 247.326 340.696 246.504 344.486 244.856L344.489 244.855C348.341 243.149 351.616 240.617 354.309 237.265L354.311 237.261C357.014 233.842 358.797 229.661 359.672 224.736L359.672 224.735L365.824 189.85L365.927 189.263H365.331H353.919H353.499L353.426 189.676L347.276 224.558C347.275 224.559 347.275 224.56 347.275 224.56C346.589 228.306 345.096 231.133 342.827 233.092C340.615 234.996 337.744 235.966 334.169 235.966C331.17 235.966 328.93 235.256 327.379 233.906C325.838 232.513 325.038 230.505 325.038 227.805C325.038 227.253 325.14 226.236 325.355 224.727L331.505 189.85Z" fill="#535353" stroke="#535353"/>
    <path d="M300.748 246.069L291.494 223.685C295.796 222.455 299.264 220.383 301.873 217.454C304.627 214.369 306.345 210.94 307.011 207.171L307.011 207.171L307.013 207.159C307.178 206.056 307.261 204.979 307.261 203.928C307.261 199.587 305.723 196.046 302.64 193.354C299.547 190.6 295.038 189.263 289.197 189.263H267.991H267.572L267.498 189.676L257.462 246.172L257.357 246.76H257.954H269.367H269.786L269.859 246.346L273.671 224.744H278.331L286.625 246.438L286.748 246.76H287.092H300.286H301.033L300.748 246.069ZM291.064 213.174L291.064 213.174L291.059 213.178C289.392 214.592 287.117 215.326 284.179 215.326H275.305L278.123 199.41H287.173C289.759 199.41 291.587 199.965 292.753 200.986C293.918 202.006 294.525 203.448 294.525 205.385C294.525 205.674 294.475 206.289 294.368 207.254C293.899 209.79 292.792 211.751 291.064 213.174Z" fill="#535353" stroke="#535353"/>
    <path d="M235.622 189.85L235.725 189.263H235.129H222.26H221.977L221.832 189.505L197.197 230.405L186.888 189.641L186.793 189.263H186.403H173.534H173.115L173.042 189.676L163.005 246.172L162.901 246.76H163.497H174.91H175.329L175.402 246.347L181.456 212.068L189.559 246.375L189.65 246.76H190.046H198.706H198.992L199.137 246.513L219.261 212.318L213.269 246.172L213.165 246.76H213.761H225.174H225.593L225.666 246.346L235.622 189.85Z" fill="#535353" stroke="#535353"/>
    <path d="M151.398 189.412L127.513 213.606L131.688 189.85L131.791 189.263H131.195H119.864H119.445L119.371 189.676L109.335 246.172L109.23 246.76H109.827H121.24H121.659L121.732 246.347L125.96 222.44L141.296 246.528L141.443 246.76H141.718H156.125H157.058L156.541 245.983L137.829 217.834L165.785 190.118L166.648 189.263H165.433H151.754H151.545L151.398 189.412Z" fill="#535353" stroke="#535353"/>
    <path d="M104.926 197.548H105.348L105.419 197.132L107.118 187.176L107.218 186.592H106.626H69.9596H69.5396L69.4671 187.006L63.3966 221.648L63.2938 222.235H63.8891H74.816H75.129L75.2658 221.953C76.1444 220.144 77.4064 218.703 79.0564 217.62C80.6937 216.545 82.5929 216.002 84.7716 216.002C87.3976 216.002 89.2743 216.633 90.4959 217.805L90.4958 217.806L90.503 217.812C91.7772 218.988 92.4466 220.701 92.4466 223.03C92.4466 223.861 92.3687 224.749 92.2112 225.696C91.632 228.905 90.3764 231.449 88.4651 233.36L88.4651 233.36L88.4603 233.365C86.6272 235.249 84.1748 236.209 81.0484 236.209C78.485 236.209 76.5696 235.582 75.2326 234.395C73.941 233.201 73.2322 231.605 73.13 229.561L73.1062 229.086H72.6306H61.5418H61.0674L61.0425 229.559L60.9616 231.097L60.9609 231.11V231.124C60.9609 235.835 62.5468 239.646 65.7411 242.504L65.7443 242.507C68.9959 245.366 73.6095 246.759 79.5105 246.759C86.1427 246.759 91.6369 244.838 95.9516 240.966C100.254 237.105 102.946 232.008 104.042 225.705L104.042 225.705L104.044 225.697C104.316 223.952 104.454 222.387 104.454 221.006C104.454 216.588 103.181 212.903 100.607 209.993C98.0482 207.037 93.996 205.613 88.5758 205.613C86.1363 205.613 83.7534 206.085 81.4301 207.025C79.7181 207.693 78.2454 208.524 77.0201 209.523L79.121 197.548H104.926Z" fill="#535353" stroke="#535353"/>
    <path d="M-24.1934 217.844L-24.1934 217.844L-24.194 217.848C-24.5221 219.817 -24.6865 221.76 -24.6865 223.677C-24.6865 228.286 -23.6707 232.393 -21.6262 235.985C-19.5824 239.575 -16.7072 242.366 -13.0106 244.353L-13.0106 244.353L-13.0027 244.357C-9.25268 246.287 -4.96327 247.245 -0.147224 247.245C6.25481 247.245 12.145 245.63 17.5128 242.398L17.5141 242.397C22.9392 239.109 27.1306 234.532 30.0851 228.678L30.4512 227.953H29.6388H16.6074H16.3444L16.1954 228.169C14.4574 230.697 12.3323 232.609 9.82027 233.918C7.30532 235.228 4.55225 235.885 1.55252 235.885C-2.65947 235.885 -5.94792 234.651 -8.37149 232.229C-10.7407 229.807 -11.9501 226.491 -11.9501 222.22C-11.9501 221.124 -11.8194 219.724 -11.5522 218.012C-10.9155 214.408 -9.67225 211.24 -7.82833 208.5C-5.92819 205.756 -3.61318 203.654 -0.883282 202.184C1.90285 200.712 4.89766 199.976 8.10868 199.976C11.1109 199.976 13.602 200.634 15.6091 201.921L15.6091 201.921L15.6169 201.925C17.6106 203.152 19.0259 204.994 19.8563 207.485L19.9703 207.827H20.3306H33.362H33.9431L33.8564 207.253C32.9757 201.418 30.3793 196.819 26.0585 193.495C21.7465 190.178 16.3724 188.535 9.9703 188.535C4.49461 188.535 -0.683014 189.795 -5.55602 192.313C-10.3748 194.778 -14.4531 198.255 -17.7887 202.739L-17.7893 202.74C-21.0749 207.175 -23.2092 212.213 -24.1934 217.844Z" fill="#535353" stroke="#535353"/>
    <path d="M309.566 113.165L309.464 113.75H310.058H375.889L371.248 140.113L371.145 140.7H371.74H398.121H398.538L398.613 140.29L403.473 113.75H419.757H420.179L420.25 113.334L424.236 90.18L424.336 89.5952H423.743H407.825L422.717 3.63589L422.819 3.05054H422.225H391.479H391.252L391.102 3.22106L313.288 92.0432L313.196 92.1489L313.172 92.2875L309.566 113.165ZM381.759 89.5952H344.537L391.612 33.7618L381.759 89.5952Z" fill="#535353" stroke="#535353"/>
    <path d="M293.885 115.786H239.428C251.522 106.933 261.43 99.3203 269.15 92.9481L269.154 92.9451C277.153 86.2155 284.579 78.472 291.431 69.7161C298.306 60.9326 302.584 51.7499 304.245 42.1698C304.758 39.6023 305.013 36.7239 305.013 33.5375C305.013 23.6733 301.74 15.7505 295.17 9.82357C288.592 3.7627 278.962 0.773071 266.365 0.773071C253.098 0.773071 241.412 4.73037 231.325 12.6468C221.216 20.5803 214.649 32.2104 211.594 47.484L211.475 48.082H212.085H237.707H238.11L238.195 47.6879C239.827 40.1576 242.64 34.4356 246.601 30.4748L246.601 30.4749L246.606 30.4694C250.554 26.398 255.546 24.3582 261.62 24.3582C266.865 24.3582 270.634 25.6079 273.034 28.0076L273.034 28.0077L273.042 28.0161C275.577 30.4304 276.873 33.8289 276.873 38.2823C276.873 40.0179 276.687 41.8196 276.313 43.6882L276.313 43.6881L276.311 43.701C275.192 50.1649 271.704 56.854 265.795 63.769L265.792 63.7731C259.995 70.704 253.06 77.4509 244.984 84.0128C237.022 90.4581 226.022 98.8033 211.98 109.05L199.454 118.159L199.29 118.279L199.256 118.479L195.839 138.217L195.738 138.802H196.332H289.899H290.317L290.391 138.391L294.377 116.375L294.483 115.786H293.885Z" fill="#535353" stroke="#535353"/>
    <path d="M107.222 20.3136L107.22 20.316C97.1549 32.6746 90.234 49.5271 86.4285 70.838C84.9055 79.2145 84.1431 87.2154 84.1431 94.84C84.1431 109.901 87.6056 121.289 94.6187 128.914C101.639 136.546 112.138 140.32 126.018 140.32C143.224 140.32 157.186 134.531 167.855 122.935C178.509 111.356 185.842 94.0288 189.9 71.0139C191.423 62.6377 192.185 54.637 192.185 47.0127C192.185 32.0148 188.723 20.6732 181.709 13.0804C174.688 5.48018 164.19 1.72205 150.311 1.72205C131.841 1.72205 117.454 7.90693 107.222 20.3136ZM160.533 33.26L160.533 33.26L160.539 33.2682C163.488 37.2006 164.994 42.7111 164.994 49.8596C164.994 55.3856 164.24 62.3757 162.725 70.8375C161.083 79.9285 159.128 87.6173 156.863 93.9094C154.61 100.044 151.362 105.033 147.127 108.895C142.936 112.716 137.372 114.648 130.383 114.648C123.39 114.648 118.511 112.653 115.602 108.778C112.778 104.846 111.334 99.2715 111.334 91.9931C111.334 86.4669 112.088 79.4766 113.604 71.0145L113.604 71.0114C116.003 57.1242 119.532 46.3746 124.168 38.7314C128.746 31.1831 135.973 27.3949 145.946 27.3949C152.942 27.3949 157.752 29.3912 160.533 33.26Z" fill="#535353" stroke="#535353"/>
    <path d="M62.2063 115.786H7.74929C19.8437 106.933 29.752 99.3203 37.4722 92.9481L37.4758 92.9451C45.4751 86.2155 52.9008 78.472 59.7532 69.7161C66.6273 60.9326 70.9053 51.7499 72.567 42.1698C73.08 39.6023 73.3346 36.7239 73.3346 33.5375C73.3346 23.6733 70.0621 15.7505 63.4919 9.82357C56.9138 3.7627 47.2836 0.773071 34.6866 0.773071C21.4202 0.773071 9.73325 4.73037 -0.353783 12.6468C-10.4626 20.5803 -17.0291 32.2104 -20.0838 47.484L-20.2034 48.082H-19.5935H6.02822H6.43149L6.51688 47.6879C8.14845 40.1576 10.9616 34.4356 14.9224 30.4748L14.9224 30.4749L14.9278 30.4694C18.8757 26.398 23.8674 24.3582 29.9419 24.3582C35.1872 24.3582 38.9557 25.6079 41.3553 28.0076L41.3552 28.0077L41.3641 28.0161C43.8991 30.4304 45.1945 33.8289 45.1945 38.2823C45.1945 40.0179 45.0085 41.8196 44.6348 43.6882L44.6347 43.6881L44.6324 43.701C43.5137 50.1649 40.0259 56.854 34.1167 63.769L34.1133 63.7731C28.3165 70.704 21.3815 77.4509 13.3053 84.0128C5.34346 90.4581 -5.65678 98.8033 -19.6985 109.05L-32.224 118.159L-32.388 118.279L-32.4226 118.479L-35.8389 138.217L-35.9402 138.802H-35.3462H58.2207H58.6383L58.7127 138.391L62.6983 116.375L62.8049 115.786H62.2063Z" fill="#535353" stroke="#535353"/>
  </g>
</svg>
