<svg width="64" height="64" viewBox="0 0 64 64" fill="none"
  xmlns="http://www.w3.org/2000/svg">
  <path d="M32 63C49.1208 63 63 49.1208 63 32C63 14.8792 49.1208 1 32 1C14.8792 1 1 14.8792 1 32C1 49.1208 14.8792 63 32 63Z" fill="url(#paint0_linear_43_114)" stroke="white" stroke-width="2"/>
  <path d="M16.8016 21.8434C16.4448 21.4128 16.0879 21.217 15.6914 21.217H15.2156C13.2728 21.217 12.2419 21.4911 12.0436 22.0783C11.9247 22.3523 11.8057 22.9004 11.6471 23.605C11.5678 24.0357 11.5282 24.388 11.4885 24.662C11.4489 24.9361 11.4885 25.2101 11.6075 25.3667C11.6868 25.5624 11.8454 25.6798 12.0436 25.7973C12.2419 25.8756 12.5591 25.9147 12.9159 25.9147C13.2331 25.9147 13.8675 25.6016 14.8191 25.0143C15.7707 24.388 16.2862 23.9574 16.4051 23.6442C16.643 23.057 16.8016 22.6263 16.8413 22.3915C16.9206 22.1566 16.8809 21.9608 16.8016 21.8434ZM44.1205 12.6437C43.8429 12.6437 43.1689 12.8003 42.138 13.1135C41.6225 13.2701 41.2657 13.3876 40.9088 13.4658C40.552 13.5441 40.3141 13.6224 40.1158 13.6224C39.6004 13.7007 38.9263 13.779 38.2919 13.8573C37.6179 13.8965 36.9835 13.9356 36.3094 14.0139C35.1992 14.0922 34.0494 14.1705 32.7806 14.2879C31.5514 14.3662 30.5602 14.4837 29.8465 14.562C29.1724 14.6403 28.657 14.6794 28.1415 14.7577C27.7054 14.7969 27.2692 14.9143 26.952 14.9534C26.5952 15.0317 26.0004 15.5015 25.1281 16.4019C24.2558 17.3023 23.2249 18.5159 21.9165 20.0818C20.608 21.6085 19.8547 22.4306 19.6961 22.5872C19.1013 23.1744 18.8238 23.6833 18.7445 24.114C18.6652 24.5446 19.022 25.0143 19.6961 25.4058C20.4098 25.8364 21.0838 26.0713 21.7579 26.1105C22.0354 26.1496 22.2733 26.1496 22.6302 26.1888C22.9077 26.2279 23.3439 26.2279 23.7404 26.2671C24.1765 26.3062 24.5334 26.3062 24.9299 26.3454C25.2074 26.3454 25.5246 26.3845 25.6832 26.3845C26.7934 26.4237 27.8243 26.4628 28.6966 26.5411C29.5689 26.6194 30.4016 26.8151 31.1946 27.0892C31.9876 27.324 32.6616 27.7547 33.0978 28.3419C33.5339 28.9291 33.6925 29.6729 33.5339 30.6516C33.4546 31.0822 33.296 31.4345 33.0978 31.7086C32.8599 31.9434 32.503 32.2958 31.9083 32.7264C30.7188 33.6659 29.2517 34.488 27.5864 35.1535C25.8815 35.819 24.3748 36.1714 22.8284 36.2497C21.3614 36.328 19.8943 36.0539 18.5066 35.5059C18.4273 35.4667 18.348 35.4276 18.229 35.3493C18.0704 35.271 17.9515 35.1535 17.7136 35.0361C17.3567 34.7229 16.9206 34.6055 16.5241 34.6055C14.8191 34.6838 13.9468 35.3493 13.7486 36.5628C13.7486 36.7194 13.7486 36.876 13.8279 36.9935C13.9072 37.1501 13.9865 37.2675 14.1054 37.3849C14.1847 37.5024 14.3433 37.5807 14.4623 37.6981C14.6209 37.7764 14.7398 37.8939 14.8984 37.9722C15.85 38.6377 16.8809 39.1074 17.9911 39.3032C19.1013 39.538 20.4098 39.6163 21.7975 39.538C23.7007 39.4598 25.485 39.1466 27.071 38.5985C28.6966 38.0504 30.3619 37.2675 32.2255 36.1714C32.8202 35.8582 33.415 35.4667 33.9701 34.9969C34.5648 34.5272 35.0803 34.0183 35.5957 33.4702C36.0319 32.9221 36.468 32.3349 36.7852 31.7869C37.1421 31.1996 37.3007 30.6516 37.38 30.1035C37.6575 27.9504 37.2214 26.4237 36.1112 25.5624C34.9217 24.662 33.0978 24.114 30.6791 23.8399C30.5205 23.8008 30.243 23.7616 30.0051 23.7616C29.7275 23.7225 29.331 23.7225 28.9742 23.6833C28.6173 23.6442 28.2208 23.605 27.864 23.5659C27.5071 23.5267 27.071 23.4876 26.6745 23.4484C25.8815 23.3702 25.2867 23.2527 24.692 23.1353C24.1765 23.0178 23.8197 22.8612 23.4628 22.7046C23.5421 22.5872 23.7007 22.4306 23.899 22.1566C24.1369 21.9217 24.4144 21.5694 24.7713 21.1779C25.1281 20.7864 25.4453 20.3949 25.7229 20.0818C26.0004 19.7686 26.2383 19.4946 26.4762 19.2205C26.7141 18.9856 26.9917 18.7508 27.2296 18.5159C27.5071 18.281 27.8243 18.0461 28.0226 17.8112C29.2914 17.3806 30.8774 17.1457 32.9392 17.0283C33.4546 16.9891 34.0494 16.9891 34.6838 16.95C35.3578 16.9108 36.0715 16.9108 36.9042 16.9108C37.7765 16.9108 38.4505 16.8717 38.8867 16.8717C39.4021 16.8717 39.759 16.8325 39.9176 16.8325C41.8208 16.7542 43.2878 16.5585 44.398 16.2845C44.8342 16.167 45.4289 15.8538 46.0237 15.2666C46.6184 14.7186 46.896 14.2488 46.9753 13.8573V13.6224L46.896 13.4658L46.6581 13.3093C46.5788 13.2701 46.4995 13.231 46.3805 13.1527C45.8651 12.722 45.191 12.5263 44.398 12.5263C44.2394 12.6046 44.1601 12.6437 44.1205 12.6437ZM50.7024 33.8225C50.7024 33.7834 50.6231 33.8617 50.5438 33.9791L49.3543 35.0361L49.4336 35.1144C48.8388 35.6625 48.1251 36.2888 47.3718 36.7977C45.31 38.2462 41.5036 40.0861 41.5036 40.0861L41.6622 40.2427C41.226 40.1253 40.8692 39.9295 40.3934 39.7729C38.4902 38.9508 36.9438 37.3066 36.5077 36.7977C36.5077 36.7586 36.4284 36.7194 36.3491 36.6411C36.1112 36.3671 35.9129 35.9756 35.5561 35.6625C34.7631 34.9187 34.0097 37.2675 29.6879 39.3032C25.366 41.3388 20.2115 40.3601 21.52 41.9652C21.52 42.0043 21.52 42.0435 21.5993 42.0435C22.7888 43.5311 25.8418 47.2892 26.8727 48.5028C26.5952 48.5811 25.5643 48.8551 25.0488 49.1292C23.7404 49.7947 23.3042 50.421 23.3042 50.421C23.3042 50.421 25.2074 49.8338 26.6745 49.7555C27.7054 49.6772 29.2517 49.9121 29.2517 49.9121L28.0226 48.3854C27.5864 47.7982 27.1503 47.0935 26.7141 46.3497C26.1194 45.371 25.9608 44.2749 25.9211 43.3745C27.2296 43.2179 28.9345 42.6698 31.5118 41.378C32.8995 40.7125 33.6529 39.8512 34.2873 39.1074C36.5077 40.5167 42.2966 42.0435 43.0896 42.2784V42.3175C43.0896 42.3175 43.3671 42.3958 43.8033 42.0435C44.0412 41.8477 44.3187 41.5737 44.5963 41.2214L44.6756 41.1822H44.5963C46.1426 39.6555 48.6406 37.1501 49.7508 35.9756C49.9094 36.2497 50.4248 37.1109 50.7817 37.5415C51.8126 38.5594 52.5263 38.8334 52.5263 38.8334C52.5263 38.8334 51.5747 37.1501 51.1385 35.8582C50.9006 34.9578 50.7817 33.8225 50.7817 33.8225H50.7024Z" fill="white"/>
  <defs>
    <linearGradient id="paint0_linear_43_114" x1="2.00225" y1="32.0044" x2="61.9963" y2="32.0044" gradientUnits="userSpaceOnUse">
      <stop stop-color="#FF0D4D"/>
      <stop offset="1" stop-color="#FF5726"/>
    </linearGradient>
  </defs>
</svg>
